<?xml version="1.0" standalone="no"?>
<!DOCTYPE svg PUBLIC "-//W3C//DTD SVG 20010904//EN"
 "http://www.w3.org/TR/2001/REC-SVG-20010904/DTD/svg10.dtd">
<svg version="1.0" xmlns="http://www.w3.org/2000/svg"
 width="347.000000pt" height="347.000000pt" viewBox="0 0 347.000000 347.000000"
 preserveAspectRatio="xMidYMid meet">
<metadata>
Created by potrace 1.11, written by Peter Selinger 2001-2013
</metadata>
<g transform="translate(0.000000,347.000000) scale(0.100000,-0.100000)"
fill="#000000" stroke="none">
<path d="M2443 3126 c6 -13 45 -45 86 -72 192 -125 349 -276 443 -425 16 -25
16 -29 -4 -65 -11 -22 -24 -40 -29 -42 -5 -2 -9 -12 -9 -21 0 -10 -13 -35 -30
-56 -16 -21 -30 -42 -30 -48 0 -5 -13 -25 -30 -44 -16 -18 -30 -40 -30 -48 0
-8 -6 -18 -13 -22 -7 -4 -25 -24 -41 -43 -84 -104 -113 -127 -177 -139 -117
-23 -206 -63 -272 -122 -34 -30 -77 -65 -95 -78 -62 -43 -193 -101 -285 -126
-51 -13 -121 -38 -157 -56 -36 -17 -76 -36 -90 -41 -34 -13 -277 9 -365 34
-38 10 -94 25 -123 32 -30 8 -59 19 -65 25 -6 6 -18 11 -28 11 -9 0 -38 11
-64 25 -26 14 -50 23 -53 21 -2 -3 -18 6 -34 19 -16 14 -37 25 -45 25 -9 0
-24 7 -33 15 -9 8 -34 25 -56 37 -81 46 -142 89 -148 103 -3 8 -11 15 -18 15
-7 0 -29 15 -49 33 -20 17 -53 46 -74 62 -20 17 -42 36 -48 43 -7 7 -43 44
-81 81 l-69 69 34 73 c96 212 256 412 454 568 72 56 120 111 97 111 -5 0 -49
-29 -98 -64 -335 -240 -555 -581 -636 -989 -30 -149 -32 -432 -4 -577 125
-650 632 -1155 1281 -1276 139 -26 421 -26 560 0 651 121 1160 630 1281 1281
29 152 26 432 -5 580 -70 332 -223 612 -457 836 -107 102 -278 224 -375 266
-25 11 -26 10 -16 -11z"/>
</g>
</svg>
