<?xml version="1.0" standalone="no"?>
<!DOCTYPE svg PUBLIC "-//W3C//DTD SVG 20010904//EN"
 "http://www.w3.org/TR/2001/REC-SVG-20010904/DTD/svg10.dtd">
<svg version="1.0" xmlns="http://www.w3.org/2000/svg"
 width="700.000000pt" height="700.000000pt" viewBox="0 0 700.000000 700.000000"
 preserveAspectRatio="xMidYMid meet">
<metadata>
Created by potrace 1.11, written by Peter Selinger 2001-2013
</metadata>
<g transform="translate(0.000000,700.000000) scale(0.100000,-0.100000)"
fill="#000000" stroke="none">
<path d="M4927 6308 c32 -46 61 -84 65 -86 38 -17 261 -165 368 -245 214 -161
520 -476 644 -664 27 -41 27 -43 12 -74 -9 -18 -16 -38 -16 -46 0 -7 -4 -13
-10 -13 -5 0 -10 -11 -10 -25 0 -14 -4 -25 -10 -25 -5 0 -10 -8 -10 -18 0 -9
-10 -22 -22 -27 -16 -7 -24 -20 -26 -45 -2 -19 -10 -39 -18 -43 -8 -4 -14 -17
-14 -27 0 -11 -4 -20 -10 -20 -5 0 -10 -11 -10 -25 0 -19 -5 -25 -17 -23 -19
3 -43 -34 -43 -67 0 -11 -9 -26 -20 -33 -11 -6 -17 -18 -14 -26 3 -8 -4 -16
-20 -20 -13 -3 -28 -15 -31 -26 -3 -11 -10 -20 -14 -20 -5 0 -14 -20 -21 -45
-9 -34 -19 -47 -36 -51 -13 -3 -24 -10 -24 -14 0 -4 -11 -20 -25 -36 -14 -16
-31 -35 -38 -43 -7 -8 -21 -33 -32 -55 -13 -26 -28 -42 -41 -44 -12 -2 -26
-14 -32 -28 -7 -13 -16 -24 -21 -24 -6 0 -22 -22 -38 -50 -19 -35 -34 -50 -48
-50 -12 0 -25 -4 -30 -9 -6 -6 -41 -15 -80 -21 -97 -15 -247 -54 -362 -96 -91
-33 -102 -40 -193 -127 -130 -124 -258 -213 -425 -297 -165 -82 -269 -119
-431 -154 -104 -23 -140 -37 -291 -113 l-172 -87 -128 14 c-70 8 -157 15 -193
16 -36 0 -83 6 -105 12 -26 7 -54 8 -79 2 -32 -7 -53 -4 -119 20 -44 15 -86
26 -93 23 -7 -2 -49 10 -93 27 -48 19 -91 30 -106 28 -14 -3 -33 1 -42 8 -10
7 -29 14 -44 14 -14 0 -46 13 -72 30 -28 18 -61 30 -81 30 -21 0 -47 11 -72
30 -21 16 -49 30 -60 30 -12 0 -27 7 -34 15 -7 8 -27 15 -44 15 -19 1 -44 12
-66 30 -19 17 -42 30 -51 30 -9 0 -22 7 -29 15 -7 8 -25 15 -39 15 -18 0 -39
12 -61 35 -19 19 -39 35 -46 35 -6 0 -17 7 -24 15 -7 8 -20 15 -30 15 -10 0
-21 7 -24 16 -4 11 -14 15 -31 11 -21 -3 -31 3 -53 34 -15 21 -32 39 -39 39
-7 0 -16 7 -21 16 -6 12 -18 15 -35 12 -15 -3 -24 -2 -22 2 2 4 -7 13 -21 20
-13 8 -34 29 -45 47 -11 18 -27 34 -35 34 -8 1 -19 2 -26 3 -6 0 -13 7 -16 15
-3 9 0 11 8 6 8 -5 11 -4 7 3 -4 5 -16 8 -26 5 -13 -3 -23 2 -30 16 -7 12 -17
21 -24 21 -8 0 -21 16 -30 35 -11 23 -24 35 -37 35 -11 0 -23 7 -26 15 -4 8
-12 15 -19 15 -8 0 -17 9 -20 21 -4 12 -12 18 -21 15 -8 -3 -14 1 -14 9 0 8
-9 19 -20 25 -11 6 -20 17 -20 26 0 10 -7 13 -24 8 -18 -4 -26 -1 -30 14 -4
11 -13 23 -20 25 -8 3 -17 19 -21 36 -5 24 -12 31 -31 31 -13 0 -24 4 -24 8 0
10 -24 41 -67 88 -26 28 -33 32 -34 17 0 -14 -2 -15 -6 -3 -3 8 -13 23 -22 32
-27 28 -37 42 -44 61 -4 10 -11 15 -17 12 -25 -15 -4 42 69 190 95 192 171
316 302 490 183 245 418 475 669 656 41 29 76 56 78 59 1 3 24 42 51 87 56 94
59 94 -89 -2 -689 -447 -1188 -1162 -1369 -1960 -62 -272 -76 -412 -75 -730 0
-236 4 -303 23 -425 91 -600 307 -1099 675 -1565 102 -129 362 -389 491 -491
417 -330 879 -544 1385 -644 239 -46 335 -55 620 -55 285 0 381 9 620 55 506
100 968 314 1385 644 129 102 389 362 491 491 380 481 606 1021 685 1635 21
158 18 611 -5 770 -94 669 -341 1214 -776 1715 -250 287 -604 561 -950 735
l-81 41 58 -83z"/>
</g>
</svg>
