<?xml version="1.0" encoding="UTF-8" standalone="no"?>
<!-- Created with Inkscape (http://www.inkscape.org/) -->

<svg
   xmlns:dc="http://purl.org/dc/elements/1.1/"
   xmlns:cc="http://creativecommons.org/ns#"
   xmlns:rdf="http://www.w3.org/1999/02/22-rdf-syntax-ns#"
   xmlns:svg="http://www.w3.org/2000/svg"
   xmlns="http://www.w3.org/2000/svg"
   xmlns:xlink="http://www.w3.org/1999/xlink"
   xmlns:sodipodi="http://sodipodi.sourceforge.net/DTD/sodipodi-0.dtd"
   xmlns:inkscape="http://www.inkscape.org/namespaces/inkscape"
   width="471.42856"
   height="471.42856"
   viewBox="0 0 471.42856 471.42857"
   id="svg2"
   version="1.1"
   inkscape:version="0.91 r13725"
   sodipodi:docname="logo.svg">
  <defs
     id="defs4">
    <linearGradient
       inkscape:collect="always"
       id="linearGradient4408">
      <stop
         style="stop-color:#ffffff;stop-opacity:0.48076922"
         offset="0"
         id="stop4410" />
      <stop
         style="stop-color:#ffffff;stop-opacity:0;"
         offset="1"
         id="stop4412" />
    </linearGradient>
    <linearGradient
       id="linearGradient4360"
       inkscape:collect="always">
      <stop
         id="stop4362"
         offset="0"
         style="stop-color:#1adcff;stop-opacity:1" />
      <stop
         id="stop4364"
         offset="1"
         style="stop-color:#6d009a;stop-opacity:1" />
    </linearGradient>
    <linearGradient
       inkscape:collect="always"
       id="linearGradient4342">
      <stop
         style="stop-color:#ffffff;stop-opacity:1"
         offset="0"
         id="stop4344" />
      <stop
         style="stop-color:#ffffff;stop-opacity:0"
         offset="1"
         id="stop4346" />
    </linearGradient>
    <linearGradient
       inkscape:collect="always"
       id="linearGradient4334">
      <stop
         style="stop-color:#ffffff;stop-opacity:1"
         offset="0"
         id="stop4336" />
      <stop
         style="stop-color:#ffffff;stop-opacity:0"
         offset="1"
         id="stop4338" />
    </linearGradient>
    <linearGradient
       inkscape:collect="always"
       id="linearGradient4316">
      <stop
         style="stop-color:#ffffff;stop-opacity:0.6025641"
         offset="0"
         id="stop4318" />
      <stop
         style="stop-color:#ffffff;stop-opacity:0"
         offset="1"
         id="stop4320" />
    </linearGradient>
    <linearGradient
       inkscape:collect="always"
       xlink:href="#linearGradient4316"
       id="linearGradient4322"
       x1="422.78476"
       y1="-825.02478"
       x2="496.99503"
       y2="-405.28793"
       gradientUnits="userSpaceOnUse"
       gradientTransform="translate(-69.381349,952.39035)" />
    <linearGradient
       inkscape:collect="always"
       xlink:href="#linearGradient4334"
       id="linearGradient4340"
       x1="441.42856"
       y1="-630.49493"
       x2="441.42856"
       y2="-562.2807"
       gradientUnits="userSpaceOnUse"
       gradientTransform="translate(-69.381349,952.39035)" />
    <linearGradient
       inkscape:collect="always"
       xlink:href="#linearGradient4342"
       id="linearGradient4348"
       x1="442.5"
       y1="-622.28064"
       x2="442.5"
       y2="-585.85211"
       gradientUnits="userSpaceOnUse"
       gradientTransform="translate(-69.381349,952.39035)" />
    <radialGradient
       inkscape:collect="always"
       xlink:href="#linearGradient4360"
       id="radialGradient4358"
       cx="436.38589"
       cy="-547.71942"
       fx="436.38589"
       fy="-547.71942"
       r="215.71428"
       gradientUnits="userSpaceOnUse"
       gradientTransform="matrix(-0.01400798,1.3112502,-1.3370615,-0.01428465,-359.21715,-175.36405)" />
    <linearGradient
       inkscape:collect="always"
       xlink:href="#linearGradient4408"
       id="linearGradient4414"
       x1="368.57144"
       y1="823.79077"
       x2="365.71429"
       y2="705.21936"
       gradientUnits="userSpaceOnUse"
       gradientTransform="translate(-0.69097612,-25.437306)" />
  </defs>
  <sodipodi:namedview
     id="base"
     pagecolor="#ffffff"
     bordercolor="#666666"
     borderopacity="1.0"
     inkscape:pageopacity="0.0"
     inkscape:pageshadow="2"
     inkscape:zoom="0.69999999"
     inkscape:cx="496.04315"
     inkscape:cy="115.94596"
     inkscape:document-units="px"
     inkscape:current-layer="layer1"
     showgrid="false"
     inkscape:window-width="1871"
     inkscape:window-height="1056"
     inkscape:window-x="49"
     inkscape:window-y="24"
     inkscape:window-maximized="1"
     units="px"
     fit-margin-top="20"
     fit-margin-left="20"
     fit-margin-right="20"
     fit-margin-bottom="20" />
  <metadata
     id="metadata7">
    <rdf:RDF>
      <cc:Work
         rdf:about="">
        <dc:format>image/svg+xml</dc:format>
        <dc:type
           rdf:resource="http://purl.org/dc/dcmitype/StillImage" />
        <dc:title></dc:title>
      </cc:Work>
    </rdf:RDF>
  </metadata>
  <g
     inkscape:label="Layer 1"
     inkscape:groupmode="layer"
     id="layer1"
     transform="translate(-136.33296,-290.46681)">
    <circle
       style="fill:url(#radialGradient4358);fill-opacity:1;stroke:none;stroke-width:10;stroke-linejoin:miter;stroke-miterlimit:4;stroke-dasharray:none;stroke-opacity:1"
       id="path4287"
       cx="372.04724"
       cy="526.18109"
       r="215.71428" />
    <path
       style="fill:url(#linearGradient4322);fill-opacity:1;stroke:none;stroke-width:10;stroke-linejoin:miter;stroke-miterlimit:4;stroke-dasharray:none;stroke-opacity:1"
       d="M 372.04638,317.6091 A 208.57143,208.57143 0 0 0 163.62256,523.24191 c 1.00841,0.82197 2.02679,1.71225 3.03125,2.50586 2.95416,2.33405 5.89021,4.54638 8.81054,6.64063 2.92034,2.09424 5.82386,4.07088 8.71094,5.93359 2.88708,1.86272 5.75888,3.6125 8.61328,5.25195 2.85441,1.63945 5.69136,3.1693 8.51367,4.59375 2.82231,1.42445 5.62913,2.74322 8.41993,3.96094 2.79079,1.21772 5.56632,2.33426 8.32617,3.35352 2.75985,1.01925 5.50488,1.94047 8.23437,2.76953 2.72949,0.82905 5.44287,1.56576 8.14258,2.21289 5.39942,1.29425 10.73968,2.23348 16.02344,2.84961 5.28375,0.61613 10.51087,0.90992 15.68359,0.91406 5.17272,0.004 10.29111,-0.28251 15.35742,-0.82422 5.06632,-0.5417 10.08039,-1.33991 15.04493,-2.36133 4.96453,-1.02141 9.88066,-2.26617 14.74804,-3.70117 4.86739,-1.43499 9.68608,-3.05936 14.46094,-4.84179 4.77486,-1.78244 9.50444,-3.72142 14.19141,-5.78516 4.68696,-2.06374 9.33185,-4.25234 13.93554,-6.53125 4.6037,-2.27891 9.16635,-4.64823 13.69141,-7.07617 9.05011,-4.8559 17.94763,-9.94478 26.71094,-15 8.76331,-5.05522 17.39272,-10.07728 25.90625,-14.80274 4.25676,-2.36272 8.48428,-4.65095 12.68554,-6.83203 4.20126,-2.18108 8.37696,-4.25615 12.52735,-6.18945 4.15038,-1.9333 8.27672,-3.72437 12.38086,-5.34375 4.10413,-1.61939 8.18553,-3.06536 12.24804,-4.30469 4.06252,-1.23933 8.10534,-2.27326 12.13086,-3.06641 4.02552,-0.79314 8.0342,-1.34613 12.02735,-1.62695 3.99315,-0.28082 7.97013,-0.28983 11.93554,0.008 3.96542,0.29764 7.91903,0.90152 11.86133,1.84375 1.97115,0.47112 3.94001,1.02721 5.90625,1.67188 1.96624,0.64467 3.92872,1.37859 5.89063,2.20508 1.9619,0.82648 3.9227,1.74515 5.88086,2.76172 1.95815,1.01656 3.91416,2.13078 5.86914,3.3457 1.95498,1.21492 3.90894,2.53159 5.86132,3.95312 1.95239,1.42154 3.90316,2.94757 5.85352,4.58399 1.95036,1.63642 3.90069,3.38262 5.84961,5.24219 1.94892,1.85957 3.89764,3.83284 5.8457,5.92382 3.89613,4.18198 7.7894,8.83494 11.68555,13.99219 1.31507,1.74073 2.63184,3.88726 3.94727,5.74414 a 208.57143,208.57143 0 0 0 0.0527,-1.03515 208.57143,208.57143 0 0 0 -208.57227,-208.57227 z"
       id="circle4303"
       inkscape:connector-curvature="0" />
    <path
       id="path4324"
       d="m 372.0858,321.18053 c -53.46286,0.022 -96.63857,29.7184 -103.82039,64.00533 0.48758,26.49682 45.41404,-14.66512 107.06441,-12.64701 52.10463,0.0994 103.13442,36.02354 103.14594,12.14901 -6.07137,-31.09751 -52.36632,-63.50697 -106.39,-63.50682 z"
       style="fill:url(#linearGradient4340);fill-opacity:1;stroke:none;stroke-width:10;stroke-linejoin:miter;stroke-miterlimit:4;stroke-dasharray:none;stroke-opacity:1"
       inkscape:connector-curvature="0"
       sodipodi:nodetypes="cccccc" />
    <circle
       r="207.14285"
       cy="526.18109"
       cx="372.04724"
       id="circle4396"
       style="fill:url(#linearGradient4414);fill-opacity:1;stroke:none;stroke-width:10;stroke-linejoin:miter;stroke-miterlimit:4;stroke-dasharray:none;stroke-opacity:1" />
    <path
       sodipodi:nodetypes="cccccc"
       inkscape:connector-curvature="0"
       style="fill:url(#linearGradient4348);fill-opacity:1;stroke:none;stroke-width:10;stroke-linejoin:miter;stroke-miterlimit:4;stroke-dasharray:none;stroke-opacity:1"
       d="m 372.59658,324.39482 c -32.20811,0.0113 -58.21885,15.31002 -62.54546,32.9736 0.29374,13.65036 27.3592,-7.55503 64.49978,-6.51535 31.38987,0.0512 62.13221,18.55824 62.13915,6.2588 -3.65763,-16.02049 -31.54752,-32.71687 -64.09349,-32.71679 z"
       id="path4330" />
  </g>
</svg>
